<svg width="319" height="55" viewBox="0 0 319 55" fill="none" xmlns="http://www.w3.org/2000/svg">
<g filter="url(#filter0_d_64_302)">
<path d="M100 40.9872L99.9953 42.4872L100 40.9872ZM155 2.76404L155.032 1.26438L155 2.76404ZM214 40.9872L214.053 42.4863L214 40.9872ZM247 15.0569L247.49 16.4746L247 15.0569ZM311.429 16.4941C312.223 16.2569 312.674 15.4211 312.437 14.6274L308.572 1.69254C308.335 0.898795 307.499 0.447613 306.705 0.684799C305.912 0.921985 305.46 1.75772 305.698 2.55147L309.133 14.0491L297.636 17.4848C296.842 17.722 296.391 18.5577 296.628 19.3515C296.865 20.1452 297.701 20.5964 298.495 20.3592L311.429 16.4941ZM0 40.9873C1.29804 41.7391 1.29801 41.7391 1.29798 41.7392C1.29797 41.7392 1.29795 41.7392 1.29793 41.7392C1.29791 41.7393 1.29789 41.7393 1.29788 41.7393C1.29786 41.7394 1.29787 41.7393 1.29792 41.7393C1.29801 41.7391 1.29823 41.7387 1.29857 41.7381C1.29927 41.7369 1.30048 41.7349 1.30221 41.7319C1.30566 41.726 1.31117 41.7165 1.31873 41.7036C1.33384 41.6779 1.35712 41.6383 1.38847 41.5856C1.45118 41.48 1.54614 41.3216 1.67247 41.1146C1.92517 40.7006 2.30328 40.0926 2.79981 39.3254L0.281261 37.6954C-0.230592 38.4862 -0.622749 39.1167 -0.888227 39.5517C-1.02098 39.7691 -1.12208 39.9378 -1.19066 40.0532C-1.22496 40.111 -1.25113 40.1554 -1.26906 40.186C-1.27802 40.2012 -1.28493 40.2131 -1.28976 40.2214C-1.29218 40.2255 -1.29408 40.2288 -1.29546 40.2312C-1.29615 40.2323 -1.29671 40.2333 -1.29714 40.2341C-1.29735 40.2344 -1.29754 40.2347 -1.29769 40.235C-1.29776 40.2351 -1.29783 40.2352 -1.29789 40.2353C-1.29792 40.2354 -1.29795 40.2355 -1.29797 40.2355C-1.298 40.2355 -1.29804 40.2356 0 40.9873ZM6.08634 34.532C7.10837 33.1179 8.28128 31.5588 9.59323 29.9132L7.24752 28.0431C5.90329 29.7291 4.70183 31.3261 3.65486 32.7748L6.08634 34.532ZM13.3216 25.4648C14.5565 24.0645 15.8729 22.6423 17.2646 21.228L15.1263 19.1239C13.6929 20.5805 12.3393 22.043 11.0716 23.4806L13.3216 25.4648ZM21.4439 17.2312C22.8615 15.9594 24.3376 14.7197 25.8674 13.5352L24.0308 11.1631C22.4388 12.3958 20.9071 13.6824 19.4405 14.9981L21.4439 17.2312ZM30.5524 10.21C32.1593 9.17289 33.8117 8.21299 35.5051 7.35171L34.145 4.67773C32.3522 5.58962 30.6108 6.60172 28.9256 7.6893L30.5524 10.21ZM40.7179 5.07977C41.6073 4.75733 42.5055 4.46531 43.412 4.20634L42.588 1.32175C41.612 1.60056 40.6476 1.91419 39.6955 2.25939L40.7179 5.07977ZM43.412 4.20634C44.3718 3.93216 45.2908 3.74303 46.1727 3.62997L45.7913 0.654323C44.751 0.787675 43.684 1.00862 42.588 1.32175L43.412 4.20634ZM51.6277 3.92411C53.3932 4.36726 55.0571 5.14674 56.6601 6.2065L58.3146 3.70394C56.4775 2.48945 54.5047 1.55318 52.358 1.01437L51.6277 3.92411ZM61.0602 9.90083C62.3852 11.2396 63.6765 12.7351 64.9625 14.3396L67.3033 12.4633C65.9764 10.8079 64.6142 9.22707 63.1924 7.79048L61.0602 9.90083ZM68.6004 19.1128C69.7805 20.7123 70.9862 22.3719 72.2078 24.0044L74.6097 22.207C73.3949 20.5835 72.2135 18.957 71.0146 17.3318L68.6004 19.1128ZM75.9915 28.8416C77.3195 30.4422 78.7051 31.9917 80.1689 33.4358L82.2758 31.3001C80.9004 29.9432 79.5826 28.4714 78.3003 26.926L75.9915 28.8416ZM84.9754 37.5124C86.7096 38.7436 88.5611 39.8025 90.5551 40.6232L91.6969 37.849C89.9397 37.1257 88.2862 36.1837 86.7122 35.0662L84.9754 37.5124ZM96.7753 42.2775C97.8175 42.4122 98.8902 42.4838 99.9953 42.4872L100.005 39.4872C99.0234 39.4842 98.0761 39.4207 97.1599 39.3023L96.7753 42.2775ZM99.9953 42.4872C101.057 42.4906 102.09 42.4218 103.097 42.2865L102.697 39.3132C101.826 39.4302 100.93 39.4901 100.005 39.4872L99.9953 42.4872ZM109.049 40.6294C110.924 39.8254 112.684 38.7933 114.352 37.5981L112.604 35.1596C111.083 36.2495 109.511 37.1668 107.866 37.8723L109.049 40.6294ZM118.947 33.7363C120.353 32.3862 121.707 30.9398 123.025 29.4445L120.774 27.4608C119.494 28.9132 118.199 30.2955 116.869 31.5722L118.947 33.7363ZM126.796 24.9692C128.093 23.3798 129.163 22.0421 130.448 20.4686L128.125 18.5706C126.97 19.9838 125.615 21.6716 124.472 23.0721L126.796 24.9692ZM134.149 16.0838C135.431 14.6324 136.729 13.2536 138.061 11.9832L135.99 9.81255C134.58 11.1577 133.222 12.6019 131.901 14.097L134.149 16.0838ZM142.338 8.41922C143.864 7.34025 145.442 6.43838 147.093 5.7535L145.943 2.98246C144.056 3.76553 142.284 4.78333 140.606 5.9694L142.338 8.41922ZM152.275 4.39041C153.145 4.28834 154.042 4.24415 154.968 4.26371L155.032 1.26438C153.969 1.24193 152.934 1.29258 151.925 1.41083L152.275 4.39041ZM154.968 4.26371C155.914 4.28368 156.842 4.37335 157.755 4.52675L158.252 1.56823C157.199 1.39131 156.126 1.28749 155.032 1.26438L154.968 4.26371ZM163.132 6.19291C164.827 6.95582 166.487 7.92286 168.124 9.05438L169.83 6.58635C168.072 5.37158 166.254 4.30801 164.363 3.45714L163.132 6.19291ZM172.726 12.6757C174.18 13.9483 175.616 15.3157 177.047 16.7441L179.166 14.6209C177.704 13.161 176.218 11.746 174.701 10.4183L172.726 12.6757ZM181.212 21.0485C182.576 22.4917 183.977 23.9944 185.35 25.4432L187.527 23.3795C186.141 21.9164 184.79 20.4673 183.393 18.9881L181.212 21.0485ZM189.595 29.8013C191.07 31.2579 192.567 32.6632 194.097 33.9732L196.048 31.6949C194.588 30.4434 193.143 29.0893 191.704 27.6672L189.595 29.8013ZM199.038 37.7419C200.826 38.9256 202.677 39.9441 204.604 40.7316L205.739 37.9545C204.027 37.2547 202.349 36.3364 200.694 35.2403L199.038 37.7419ZM210.813 42.3579C211.873 42.4802 212.953 42.5254 214.053 42.4863L213.947 39.4882C212.999 39.5219 212.069 39.4829 211.156 39.3776L210.813 42.3579ZM214.053 42.4863C215.083 42.4497 216.056 42.3373 216.979 42.1548L216.398 39.2117C215.638 39.3618 214.825 39.457 213.947 39.4882L214.053 42.4863ZM222.491 39.9452C224.146 38.8885 225.569 37.5727 226.862 36.1316L224.63 34.1276C223.457 35.4345 222.238 36.5478 220.877 37.4163L222.491 39.9452ZM230.309 31.7648C231.362 30.3171 232.376 28.8729 233.482 27.4186L231.093 25.6034C229.963 27.0904 228.898 28.6045 227.883 30.0005L230.309 31.7648ZM236.855 23.4075C238.017 22.1916 239.283 21.0432 240.708 20.003L238.939 17.5801C237.348 18.7418 235.949 20.0132 234.686 21.3355L236.855 23.4075ZM245.105 17.4279C245.858 17.0832 246.652 16.7641 247.49 16.4746L246.51 13.6391C245.582 13.9599 244.699 14.3147 243.857 14.6998L245.105 17.4279ZM247.49 16.4746C248.488 16.1297 249.504 15.8027 250.535 15.4935L249.673 12.62C248.604 12.9406 247.549 13.2801 246.51 13.6391L247.49 16.4746ZM256.748 13.8782C258.826 13.4152 260.939 13.0163 263.07 12.6795L262.602 9.71628C260.413 10.0623 258.238 10.4727 256.096 10.95L256.748 13.8782ZM269.461 11.8568C271.611 11.641 273.761 11.4853 275.89 11.3874L275.753 8.39055C273.57 8.49091 271.366 8.65051 269.161 8.87184L269.461 11.8568ZM282.336 11.2657C284.533 11.2845 286.686 11.3656 288.772 11.5059L288.973 8.5127C286.827 8.36827 284.616 8.28506 282.362 8.26581L282.336 11.2657ZM295.162 12.1492C297.397 12.4548 299.506 12.8355 301.457 13.2856L302.131 10.3624C300.082 9.88951 297.882 9.4932 295.568 9.17681L295.162 12.1492ZM307.496 15.101C308.526 15.503 309.459 15.9295 310.287 16.3768L311.713 13.7369C310.759 13.2223 309.713 12.7457 308.586 12.3063L307.496 15.101Z" fill="#E25E5E"/>
</g>
<defs>
<filter id="filter0_d_64_302" x="-7.29797" y="0.621582" width="325.798" height="53.8784" filterUnits="userSpaceOnUse" color-interpolation-filters="sRGB">
<feFlood flood-opacity="0" result="BackgroundImageFix"/>
<feColorMatrix in="SourceAlpha" type="matrix" values="0 0 0 0 0 0 0 0 0 0 0 0 0 0 0 0 0 0 127 0" result="hardAlpha"/>
<feOffset dy="6"/>
<feGaussianBlur stdDeviation="3"/>
<feComposite in2="hardAlpha" operator="out"/>
<feColorMatrix type="matrix" values="0 0 0 0 0 0 0 0 0 0 0 0 0 0 0 0 0 0 0.25 0"/>
<feBlend mode="normal" in2="BackgroundImageFix" result="effect1_dropShadow_64_302"/>
<feBlend mode="normal" in="SourceGraphic" in2="effect1_dropShadow_64_302" result="shape"/>
</filter>
</defs>
</svg>
