<svg width="257" height="38" viewBox="0 0 257 38" fill="none" xmlns="http://www.w3.org/2000/svg">
<g filter="url(#filter0_d_44_21)">
<path d="M6 13C4.89543 13 4 13.8954 4 15C4 16.1046 4.89543 17 6 17V13ZM252.414 16.4142C253.195 15.6332 253.195 14.3668 252.414 13.5858L239.686 0.857864C238.905 0.0768156 237.639 0.0768156 236.858 0.857864C236.077 1.63891 236.077 2.90524 236.858 3.68629L248.172 15L236.858 26.3137C236.077 27.0948 236.077 28.3611 236.858 29.1421C237.639 29.9232 238.905 29.9232 239.686 29.1421L252.414 16.4142ZM6 17H251V13H6V17Z" fill="#E25E5E"/>
</g>
<defs>
<filter id="filter0_d_44_21" x="0" y="0.271973" width="257" height="37.4561" filterUnits="userSpaceOnUse" color-interpolation-filters="sRGB">
<feFlood flood-opacity="0" result="BackgroundImageFix"/>
<feColorMatrix in="SourceAlpha" type="matrix" values="0 0 0 0 0 0 0 0 0 0 0 0 0 0 0 0 0 0 127 0" result="hardAlpha"/>
<feOffset dy="4"/>
<feGaussianBlur stdDeviation="2"/>
<feComposite in2="hardAlpha" operator="out"/>
<feColorMatrix type="matrix" values="0 0 0 0 0 0 0 0 0 0 0 0 0 0 0 0 0 0 0.25 0"/>
<feBlend mode="normal" in2="BackgroundImageFix" result="effect1_dropShadow_44_21"/>
<feBlend mode="normal" in="SourceGraphic" in2="effect1_dropShadow_44_21" result="shape"/>
</filter>
</defs>
</svg>
