<svg width="233" height="108" viewBox="0 0 233 108" fill="none" xmlns="http://www.w3.org/2000/svg">
<path d="M49.6348 29.0977H45.3574V31.998H45.6699C46.1517 31.998 46.4935 32.0924 46.6953 32.2812C46.9036 32.4635 47.0078 32.7044 47.0078 33.0039C47.0078 33.2969 46.9036 33.5378 46.6953 33.7266C46.4935 33.9089 46.1517 34 45.6699 34H43.2188C42.737 34 42.3919 33.9089 42.1836 33.7266C41.9818 33.5378 41.8809 33.2936 41.8809 32.9941C41.8809 32.6296 42.0404 32.3464 42.3594 32.1445C42.5156 32.0404 42.8477 31.9915 43.3555 31.998V24.166C43.0039 24.1335 42.737 24.026 42.5547 23.8438C42.3789 23.6615 42.291 23.4336 42.291 23.1602C42.291 22.8607 42.3919 22.6198 42.5938 22.4375C42.8021 22.2487 43.1471 22.1543 43.6289 22.1543L45.6699 22.1641C46.1517 22.1641 46.4935 22.2552 46.6953 22.4375C46.9036 22.6198 47.0078 22.8607 47.0078 23.1602C47.0078 23.4596 46.9036 23.7038 46.6953 23.8926C46.4935 24.0749 46.1517 24.166 45.6699 24.166H45.3574V27.0957H49.6348V24.166H49.3223C48.8405 24.166 48.4954 24.0749 48.2871 23.8926C48.0853 23.7038 47.9844 23.4596 47.9844 23.1602C47.9844 22.8607 48.0853 22.6198 48.2871 22.4375C48.4954 22.2487 48.8405 22.1543 49.3223 22.1543L51.3633 22.1641C51.8451 22.1641 52.1868 22.2552 52.3887 22.4375C52.597 22.6198 52.7012 22.8607 52.7012 23.1602C52.7012 23.4336 52.61 23.6615 52.4277 23.8438C52.252 24.026 51.9883 24.1335 51.6367 24.166V31.998C52.151 31.998 52.4831 32.0469 52.6328 32.1445C52.9518 32.3464 53.1113 32.6328 53.1113 33.0039C53.1113 33.2969 53.0072 33.5378 52.7988 33.7266C52.597 33.9089 52.2552 34 51.7734 34H49.3223C48.8405 34 48.4954 33.9089 48.2871 33.7266C48.0853 33.5378 47.9844 33.2936 47.9844 32.9941C47.9844 32.7012 48.0885 32.4635 48.2969 32.2812C48.5052 32.0924 48.847 31.998 49.3223 31.998H49.6348V29.0977ZM64.6543 29.7324C64.6543 30.5007 64.4395 31.2461 64.0098 31.9688C63.5866 32.6849 62.9518 33.2578 62.1055 33.6875C61.2656 34.1107 60.3867 34.3223 59.4688 34.3223C58.5573 34.3223 57.6849 34.1139 56.8516 33.6973C56.0182 33.2741 55.3835 32.7012 54.9473 31.9785C54.5111 31.2559 54.293 30.5007 54.293 29.7129C54.293 28.9121 54.5143 28.1276 54.957 27.3594C55.3997 26.5846 56.0345 25.9759 56.8613 25.5332C57.6947 25.0905 58.5638 24.8691 59.4688 24.8691C60.3802 24.8691 61.2559 25.097 62.0957 25.5527C62.9421 26.002 63.5801 26.6107 64.0098 27.3789C64.4395 28.1406 64.6543 28.9251 64.6543 29.7324ZM62.6523 29.7422C62.6523 29.0977 62.4212 28.5052 61.959 27.9648C61.3275 27.2357 60.4974 26.8711 59.4688 26.8711C58.5638 26.8711 57.8086 27.1608 57.2031 27.7402C56.5977 28.3197 56.2949 28.9902 56.2949 29.752C56.2949 30.377 56.6009 30.9629 57.2129 31.5098C57.8249 32.0501 58.5768 32.3203 59.4688 32.3203C60.3672 32.3203 61.1224 32.0501 61.7344 31.5098C62.3464 30.9629 62.6523 30.3737 62.6523 29.7422ZM71.4805 30.3086L70.0938 34H68.209L66.5293 27.1348C66.1647 27.1152 65.888 27.0143 65.6992 26.832C65.5169 26.6432 65.4258 26.4089 65.4258 26.1289C65.4258 25.8359 65.5267 25.5983 65.7285 25.416C65.9368 25.2272 66.2819 25.1328 66.7637 25.1328H68.6289C69.1107 25.1328 69.4525 25.2272 69.6543 25.416C69.8626 25.5983 69.9668 25.8392 69.9668 26.1387C69.9668 26.4382 69.8496 26.6921 69.6152 26.9004C69.4395 27.0566 69.0944 27.1348 68.5801 27.1348L69.3418 30.3086L70.582 27.0566H72.3594L73.6094 30.3086L74.3906 27.1348C73.8958 27.1348 73.5703 27.0859 73.4141 26.9883C73.1016 26.7865 72.9453 26.5 72.9453 26.1289C72.9453 25.8359 73.0462 25.5983 73.248 25.416C73.4564 25.2272 73.8014 25.1328 74.2832 25.1328H76.168C76.6497 25.1328 76.9915 25.2272 77.1934 25.416C77.4017 25.5983 77.5059 25.8392 77.5059 26.1387C77.5059 26.4056 77.4147 26.6335 77.2324 26.8223C77.0566 27.0046 76.793 27.1087 76.4414 27.1348L74.8008 34H72.9453L71.4805 30.3086ZM100.084 21.334V31.998H100.426C100.901 31.998 101.243 32.0924 101.451 32.2812C101.66 32.4635 101.764 32.7044 101.764 33.0039C101.764 33.2969 101.66 33.5378 101.451 33.7266C101.249 33.9089 100.908 34 100.426 34H98.082V33.5117C97.6263 33.7786 97.1478 33.9805 96.6465 34.1172C96.1517 34.2539 95.6374 34.3223 95.1035 34.3223C93.5996 34.3223 92.3887 33.8893 91.4707 33.0234C90.5527 32.151 90.0938 31.0671 90.0938 29.7715C90.0938 28.4173 90.5755 27.2617 91.5391 26.3047C92.5026 25.3477 93.6777 24.8691 95.0645 24.8691C95.5853 24.8691 96.0964 24.9505 96.5977 25.1133C97.099 25.2695 97.5938 25.5072 98.082 25.8262V23.3359H97.7402C97.2585 23.3359 96.9134 23.2448 96.7051 23.0625C96.5033 22.8737 96.4023 22.6328 96.4023 22.3398C96.4023 22.0404 96.5033 21.7995 96.7051 21.6172C96.9134 21.4284 97.2585 21.334 97.7402 21.334H100.084ZM98.082 29.8301C98.082 29.0033 97.7923 28.3034 97.2129 27.7305C96.6335 27.1576 95.9238 26.8711 95.084 26.8711C94.2507 26.8711 93.5443 27.1576 92.9648 27.7305C92.3854 28.3034 92.0957 28.9935 92.0957 29.8008C92.0957 30.5365 92.3561 31.1419 92.877 31.6172C93.3978 32.0859 94.1335 32.3203 95.084 32.3203C96.028 32.3203 96.7637 32.0859 97.291 31.6172C97.8184 31.1419 98.082 30.5462 98.082 29.8301ZM108.219 21.334V23.4531H105.836V21.334H108.219ZM108.492 25.1328V31.998H110.895C111.376 31.998 111.718 32.0924 111.92 32.2812C112.128 32.4635 112.232 32.7044 112.232 33.0039C112.232 33.2969 112.128 33.5378 111.92 33.7266C111.718 33.9089 111.376 34 110.895 34H104.088C103.606 34 103.261 33.9089 103.053 33.7266C102.851 33.5378 102.75 33.2936 102.75 32.9941C102.75 32.7012 102.851 32.4635 103.053 32.2812C103.261 32.0924 103.606 31.998 104.088 31.998H106.49V27.1348H104.879C104.404 27.1348 104.062 27.0436 103.854 26.8613C103.645 26.6725 103.541 26.4284 103.541 26.1289C103.541 25.8359 103.642 25.5983 103.844 25.416C104.052 25.2272 104.397 25.1328 104.879 25.1328H108.492ZM124.107 21.334V31.998H124.449C124.924 31.998 125.266 32.0924 125.475 32.2812C125.683 32.4635 125.787 32.7044 125.787 33.0039C125.787 33.2969 125.683 33.5378 125.475 33.7266C125.273 33.9089 124.931 34 124.449 34H122.105V33.5117C121.65 33.7786 121.171 33.9805 120.67 34.1172C120.175 34.2539 119.661 34.3223 119.127 34.3223C117.623 34.3223 116.412 33.8893 115.494 33.0234C114.576 32.151 114.117 31.0671 114.117 29.7715C114.117 28.4173 114.599 27.2617 115.562 26.3047C116.526 25.3477 117.701 24.8691 119.088 24.8691C119.609 24.8691 120.12 24.9505 120.621 25.1133C121.122 25.2695 121.617 25.5072 122.105 25.8262V23.3359H121.764C121.282 23.3359 120.937 23.2448 120.729 23.0625C120.527 22.8737 120.426 22.6328 120.426 22.3398C120.426 22.0404 120.527 21.7995 120.729 21.6172C120.937 21.4284 121.282 21.334 121.764 21.334H124.107ZM122.105 29.8301C122.105 29.0033 121.816 28.3034 121.236 27.7305C120.657 27.1576 119.947 26.8711 119.107 26.8711C118.274 26.8711 117.568 27.1576 116.988 27.7305C116.409 28.3034 116.119 28.9935 116.119 29.8008C116.119 30.5365 116.38 31.1419 116.9 31.6172C117.421 32.0859 118.157 32.3203 119.107 32.3203C120.051 32.3203 120.787 32.0859 121.314 31.6172C121.842 31.1419 122.105 30.5462 122.105 29.8301ZM144.537 24.166V31.998H146.559C147.04 31.998 147.382 32.0924 147.584 32.2812C147.792 32.4635 147.896 32.7044 147.896 33.0039C147.896 33.2969 147.792 33.5378 147.584 33.7266C147.382 33.9089 147.04 34 146.559 34H140.514C140.032 34 139.687 33.9089 139.479 33.7266C139.277 33.5378 139.176 33.2936 139.176 32.9941C139.176 32.7012 139.277 32.4635 139.479 32.2812C139.687 32.0924 140.032 31.998 140.514 31.998H142.535V24.166H140.514C140.032 24.166 139.687 24.0749 139.479 23.8926C139.277 23.7038 139.176 23.4596 139.176 23.1602C139.176 22.8607 139.277 22.6198 139.479 22.4375C139.687 22.2487 140.032 22.1543 140.514 22.1543L146.559 22.1641C147.04 22.1641 147.382 22.2552 147.584 22.4375C147.792 22.6198 147.896 22.8607 147.896 23.1602C147.896 23.4596 147.792 23.7038 147.584 23.8926C147.382 24.0749 147.04 24.166 146.559 24.166H144.537ZM50.5625 48.4941C50.8034 48.2663 51.0508 48.1523 51.3047 48.1523C51.5911 48.1523 51.8255 48.2565 52.0078 48.4648C52.1966 48.6667 52.291 49.0052 52.291 49.4805V50.7695C52.291 51.2513 52.1966 51.5931 52.0078 51.7949C51.8255 51.9967 51.5846 52.0977 51.2852 52.0977C51.0117 52.0977 50.7806 52.0195 50.5918 51.8633C50.4551 51.7461 50.3477 51.5085 50.2695 51.1504C50.1914 50.7858 50.0026 50.5156 49.7031 50.3398C49.1758 50.0273 48.502 49.8711 47.6816 49.8711C46.7376 49.8711 45.9792 50.1478 45.4062 50.7012C44.8398 51.2546 44.5566 51.9544 44.5566 52.8008C44.5566 53.582 44.8301 54.2005 45.377 54.6562C45.9238 55.1055 46.832 55.3301 48.1016 55.3301C48.9349 55.3301 49.6152 55.2454 50.1426 55.0762C50.4551 54.972 50.7513 54.7962 51.0312 54.5488C51.3112 54.2949 51.5651 54.168 51.793 54.168C52.0664 54.168 52.3008 54.2689 52.4961 54.4707C52.6979 54.6725 52.7988 54.9102 52.7988 55.1836C52.7988 55.6263 52.4961 56.0462 51.8906 56.4434C50.9922 57.0358 49.6771 57.332 47.9453 57.332C46.3893 57.332 45.1784 57.0098 44.3125 56.3652C43.1406 55.4993 42.5547 54.3145 42.5547 52.8105C42.5547 51.3848 43.0299 50.2064 43.9805 49.2754C44.931 48.3379 46.1712 47.8691 47.7012 47.8691C48.2546 47.8691 48.7689 47.9212 49.2441 48.0254C49.7194 48.1296 50.1589 48.2858 50.5625 48.4941ZM57.3887 44.334V48.6016C57.8053 48.3542 58.2253 48.1719 58.6484 48.0547C59.0781 47.931 59.5111 47.8691 59.9473 47.8691C60.6374 47.8691 61.2526 47.9863 61.793 48.2207C62.3333 48.4551 62.7793 48.8262 63.1309 49.334C63.4889 49.8353 63.668 50.4701 63.668 51.2383V54.998C64.1758 54.998 64.5078 55.0469 64.6641 55.1445C64.9766 55.3464 65.1328 55.6328 65.1328 56.0039C65.1328 56.2969 65.0319 56.5378 64.8301 56.7266C64.6283 56.9089 64.2865 57 63.8047 57H61.5195C61.0443 57 60.7025 56.9089 60.4941 56.7266C60.2923 56.5378 60.1914 56.2936 60.1914 55.9941C60.1914 55.6296 60.3477 55.3464 60.6602 55.1445C60.8229 55.0404 61.1549 54.9915 61.6562 54.998V51.375C61.6562 50.8607 61.5391 50.4993 61.3047 50.291C60.9987 50.0111 60.5462 49.8711 59.9473 49.8711C59.5046 49.8711 59.1107 49.959 58.7656 50.1348C58.4271 50.304 57.9681 50.6751 57.3887 51.248V54.998C57.903 54.998 58.235 55.0469 58.3848 55.1445C58.7038 55.3464 58.8633 55.6328 58.8633 56.0039C58.8633 56.2969 58.7591 56.5378 58.5508 56.7266C58.349 56.9089 58.0072 57 57.5254 57H55.25C54.7682 57 54.4232 56.9089 54.2148 56.7266C54.013 56.5378 53.9121 56.2936 53.9121 55.9941C53.9121 55.6296 54.0716 55.3464 54.3906 55.1445C54.5469 55.0404 54.8789 54.9915 55.3867 54.998V46.3359H55.0449C54.5632 46.3359 54.2181 46.2448 54.0098 46.0625C53.8079 45.8737 53.707 45.6296 53.707 45.3301C53.707 45.0371 53.8079 44.7995 54.0098 44.6172C54.2181 44.4284 54.5632 44.334 55.0449 44.334H57.3887ZM73.2676 57V56.5312C72.7663 56.7982 72.2129 56.9967 71.6074 57.127C71.002 57.2637 70.4518 57.332 69.957 57.332C68.8828 57.332 68.0104 57.0488 67.3398 56.4824C66.6693 55.9095 66.334 55.278 66.334 54.5879C66.334 53.748 66.7604 52.9701 67.6133 52.2539C68.4727 51.5312 69.6576 51.1699 71.168 51.1699C71.7734 51.1699 72.4733 51.235 73.2676 51.3652V50.8867C73.2676 50.5872 73.1374 50.3431 72.877 50.1543C72.623 49.9655 72.1348 49.8711 71.4121 49.8711C70.8197 49.8711 70.0514 49.9883 69.1074 50.2227C68.7559 50.3073 68.4824 50.3496 68.2871 50.3496C68.0202 50.3496 67.7923 50.2552 67.6035 50.0664C67.4212 49.8711 67.3301 49.6237 67.3301 49.3242C67.3301 49.1549 67.3626 49.0085 67.4277 48.8848C67.4928 48.7611 67.584 48.6634 67.7012 48.5918C67.8184 48.5137 68.0625 48.4225 68.4336 48.3184C68.9284 48.1816 69.4329 48.0742 69.9473 47.9961C70.4616 47.9115 70.9271 47.8691 71.3438 47.8691C72.5872 47.8691 73.5508 48.1393 74.2344 48.6797C74.9245 49.2135 75.2695 49.946 75.2695 50.877V54.998H75.6113C76.0931 54.998 76.4349 55.0924 76.6367 55.2812C76.8451 55.4635 76.9492 55.7044 76.9492 56.0039C76.9492 56.2969 76.8451 56.5378 76.6367 56.7266C76.4349 56.9089 76.0931 57 75.6113 57H73.2676ZM73.2676 53.416C72.4668 53.2598 71.7279 53.1816 71.0508 53.1816C70.237 53.1816 69.5371 53.3802 68.9512 53.7773C68.5866 54.0312 68.4043 54.2884 68.4043 54.5488C68.4043 54.7376 68.4922 54.8906 68.668 55.0078C68.9935 55.2227 69.4395 55.3301 70.0059 55.3301C70.4876 55.3301 71.0312 55.2357 71.6367 55.0469C72.2487 54.8581 72.7923 54.6009 73.2676 54.2754V53.416ZM84.4785 44.334V54.998H86.8809C87.3626 54.998 87.7044 55.0924 87.9062 55.2812C88.1146 55.4635 88.2188 55.7044 88.2188 56.0039C88.2188 56.2969 88.1146 56.5378 87.9062 56.7266C87.7044 56.9089 87.3626 57 86.8809 57H80.0742C79.5924 57 79.2474 56.9089 79.0391 56.7266C78.8372 56.5378 78.7363 56.2936 78.7363 55.9941C78.7363 55.7012 78.8372 55.4635 79.0391 55.2812C79.2474 55.0924 79.5924 54.998 80.0742 54.998H82.4766V46.3359H80.8652C80.39 46.3359 80.0482 46.2448 79.8398 46.0625C79.6315 45.8737 79.5273 45.6296 79.5273 45.3301C79.5273 45.0371 79.6283 44.7995 79.8301 44.6172C80.0384 44.4284 80.3835 44.334 80.8652 44.334H84.4785ZM96.4902 44.334V54.998H98.8926C99.3743 54.998 99.7161 55.0924 99.918 55.2812C100.126 55.4635 100.23 55.7044 100.23 56.0039C100.23 56.2969 100.126 56.5378 99.918 56.7266C99.7161 56.9089 99.3743 57 98.8926 57H92.0859C91.6042 57 91.2591 56.9089 91.0508 56.7266C90.849 56.5378 90.748 56.2936 90.748 55.9941C90.748 55.7012 90.849 55.4635 91.0508 55.2812C91.2591 55.0924 91.6042 54.998 92.0859 54.998H94.4883V46.3359H92.877C92.4017 46.3359 92.0599 46.2448 91.8516 46.0625C91.6432 45.8737 91.5391 45.6296 91.5391 45.3301C91.5391 45.0371 91.64 44.7995 91.8418 44.6172C92.0501 44.4284 92.3952 44.334 92.877 44.334H96.4902ZM112.525 53.582H104.312C104.521 54.1029 104.889 54.5228 105.416 54.8418C105.95 55.1608 106.669 55.3203 107.574 55.3203C108.316 55.3203 109.303 55.1608 110.533 54.8418C111.041 54.7116 111.393 54.6465 111.588 54.6465C111.855 54.6465 112.079 54.7409 112.262 54.9297C112.444 55.1185 112.535 55.3561 112.535 55.6426C112.535 55.903 112.438 56.1243 112.242 56.3066C111.982 56.5475 111.347 56.7786 110.338 57C109.329 57.2148 108.359 57.3223 107.428 57.3223C105.826 57.3223 104.544 56.8698 103.58 55.9648C102.623 55.0599 102.145 53.9466 102.145 52.625C102.145 51.2188 102.662 50.0762 103.697 49.1973C104.739 48.3118 105.937 47.8691 107.291 47.8691C108.105 47.8691 108.85 48.0124 109.527 48.2988C110.211 48.5853 110.719 48.8945 111.051 49.2266C111.52 49.7083 111.907 50.304 112.213 51.0137C112.421 51.5085 112.525 52.0814 112.525 52.7324V53.582ZM110.309 51.5801C110.003 51.0072 109.602 50.5807 109.107 50.3008C108.613 50.0143 108.023 49.8711 107.34 49.8711C106.663 49.8711 106.077 50.0143 105.582 50.3008C105.087 50.5807 104.684 51.0072 104.371 51.5801H110.309ZM117.486 48.1328V48.8066C117.851 48.4941 118.251 48.2598 118.688 48.1035C119.13 47.9473 119.609 47.8691 120.123 47.8691C121.308 47.8691 122.245 48.237 122.936 48.9727C123.482 49.5586 123.756 50.3268 123.756 51.2773V54.998C124.179 54.998 124.492 55.0924 124.693 55.2812C124.895 55.4635 124.996 55.7044 124.996 56.0039C124.996 56.2969 124.892 56.5378 124.684 56.7266C124.482 56.9089 124.14 57 123.658 57H121.852C121.37 57 121.025 56.9089 120.816 56.7266C120.615 56.5378 120.514 56.2936 120.514 55.9941C120.514 55.7012 120.615 55.4635 120.816 55.2812C121.018 55.0924 121.331 54.998 121.754 54.998V51.2188C121.754 50.7826 121.637 50.4635 121.402 50.2617C121.096 50.0013 120.637 49.8711 120.025 49.8711C119.563 49.8711 119.156 49.9622 118.805 50.1445C118.46 50.3203 118.02 50.6979 117.486 51.2773V54.998C118.001 54.998 118.333 55.0469 118.482 55.1445C118.801 55.3398 118.961 55.6263 118.961 56.0039C118.961 56.2969 118.857 56.5378 118.648 56.7266C118.447 56.9089 118.105 57 117.623 57H115.348C114.866 57 114.521 56.9089 114.312 56.7266C114.111 56.5378 114.01 56.2936 114.01 55.9941C114.01 55.6296 114.166 55.3464 114.479 55.1445C114.635 55.0469 114.97 54.998 115.484 54.998V50.1348C115.061 50.1348 114.749 50.0404 114.547 49.8516C114.345 49.6628 114.244 49.4219 114.244 49.1289C114.244 48.8359 114.345 48.5983 114.547 48.416C114.755 48.2272 115.1 48.1328 115.582 48.1328H117.486ZM133.727 48.7285V48.1328H136.07C136.552 48.1328 136.894 48.2272 137.096 48.416C137.304 48.5983 137.408 48.8392 137.408 49.1387C137.408 49.4316 137.304 49.6725 137.096 49.8613C136.894 50.0436 136.552 50.1348 136.07 50.1348H135.729V57.4199C135.729 58.123 135.579 58.735 135.279 59.2559C134.986 59.7832 134.534 60.2357 133.922 60.6133C133.31 60.9909 132.62 61.1797 131.852 61.1797H129.586C129.104 61.1797 128.759 61.0853 128.551 60.8965C128.349 60.7142 128.248 60.4766 128.248 60.1836C128.248 59.8841 128.349 59.64 128.551 59.4512C128.759 59.2689 129.104 59.1777 129.586 59.1777H131.793C132.405 59.1777 132.88 59.0117 133.219 58.6797C133.557 58.3477 133.727 57.9277 133.727 57.4199V56.4434C133.284 56.7298 132.831 56.9447 132.369 57.0879C131.913 57.2311 131.445 57.3027 130.963 57.3027C129.602 57.3027 128.463 56.8503 127.545 55.9453C126.627 55.0339 126.168 53.9108 126.168 52.5762C126.168 51.235 126.627 50.112 127.545 49.207C128.463 48.2956 129.602 47.8398 130.963 47.8398C131.471 47.8398 131.952 47.9147 132.408 48.0645C132.87 48.2077 133.31 48.429 133.727 48.7285ZM133.717 52.5664C133.717 51.8307 133.443 51.1927 132.896 50.6523C132.356 50.112 131.705 49.8418 130.943 49.8418C130.182 49.8418 129.527 50.112 128.98 50.6523C128.44 51.1927 128.17 51.8307 128.17 52.5664C128.17 53.3086 128.44 53.9499 128.98 54.4902C129.527 55.0241 130.182 55.291 130.943 55.291C131.705 55.291 132.356 55.0241 132.896 54.4902C133.443 53.9499 133.717 53.3086 133.717 52.5664ZM148.561 53.582H140.348C140.556 54.1029 140.924 54.5228 141.451 54.8418C141.985 55.1608 142.704 55.3203 143.609 55.3203C144.352 55.3203 145.338 55.1608 146.568 54.8418C147.076 54.7116 147.428 54.6465 147.623 54.6465C147.89 54.6465 148.115 54.7409 148.297 54.9297C148.479 55.1185 148.57 55.3561 148.57 55.6426C148.57 55.903 148.473 56.1243 148.277 56.3066C148.017 56.5475 147.382 56.7786 146.373 57C145.364 57.2148 144.394 57.3223 143.463 57.3223C141.861 57.3223 140.579 56.8698 139.615 55.9648C138.658 55.0599 138.18 53.9466 138.18 52.625C138.18 51.2188 138.697 50.0762 139.732 49.1973C140.774 48.3118 141.972 47.8691 143.326 47.8691C144.14 47.8691 144.885 48.0124 145.562 48.2988C146.246 48.5853 146.754 48.8945 147.086 49.2266C147.555 49.7083 147.942 50.304 148.248 51.0137C148.456 51.5085 148.561 52.0814 148.561 52.7324V53.582ZM146.344 51.5801C146.038 51.0072 145.637 50.5807 145.143 50.3008C144.648 50.0143 144.059 49.8711 143.375 49.8711C142.698 49.8711 142.112 50.0143 141.617 50.3008C141.122 50.5807 140.719 51.0072 140.406 51.5801H146.344ZM40.9434 73.1348V77.1484C40.9434 77.5781 41.0312 77.8613 41.207 77.998C41.4805 78.2129 41.9688 78.3203 42.6719 78.3203C43.694 78.3203 44.638 78.1022 45.5039 77.666C45.8359 77.4967 46.0964 77.4121 46.2852 77.4121C46.5456 77.4121 46.7702 77.5098 46.959 77.7051C47.1543 77.9004 47.252 78.138 47.252 78.418C47.252 78.6784 47.1478 78.903 46.9395 79.0918C46.6204 79.3978 45.9889 79.681 45.0449 79.9414C44.1074 80.1953 43.3164 80.3223 42.6719 80.3223C41.4284 80.3223 40.4941 80.0553 39.8691 79.5215C39.2507 78.9811 38.9414 78.3203 38.9414 77.5391V73.1348H38.2188C37.737 73.1348 37.3919 73.0436 37.1836 72.8613C36.9818 72.6725 36.8809 72.4284 36.8809 72.1289C36.8809 71.8359 36.9818 71.5983 37.1836 71.416C37.3919 71.2272 37.737 71.1328 38.2188 71.1328H38.9414V69.3262C38.9414 68.8444 39.0326 68.5026 39.2148 68.3008C39.4036 68.0924 39.6478 67.9883 39.9473 67.9883C40.2402 67.9883 40.4779 68.0924 40.6602 68.3008C40.849 68.5026 40.9434 68.8444 40.9434 69.3262V71.1328H44.6445C45.1263 71.1328 45.4681 71.2272 45.6699 71.416C45.8783 71.5983 45.9824 71.8392 45.9824 72.1387C45.9824 72.4316 45.8783 72.6725 45.6699 72.8613C45.4681 73.0436 45.1263 73.1348 44.6445 73.1348H40.9434ZM51.3828 67.334V71.6016C51.7995 71.3542 52.2194 71.1719 52.6426 71.0547C53.0723 70.931 53.5052 70.8691 53.9414 70.8691C54.6315 70.8691 55.2467 70.9863 55.7871 71.2207C56.3275 71.4551 56.7734 71.8262 57.125 72.334C57.4831 72.8353 57.6621 73.4701 57.6621 74.2383V77.998C58.1699 77.998 58.502 78.0469 58.6582 78.1445C58.9707 78.3464 59.127 78.6328 59.127 79.0039C59.127 79.2969 59.026 79.5378 58.8242 79.7266C58.6224 79.9089 58.2806 80 57.7988 80H55.5137C55.0384 80 54.6966 79.9089 54.4883 79.7266C54.2865 79.5378 54.1855 79.2936 54.1855 78.9941C54.1855 78.6296 54.3418 78.3464 54.6543 78.1445C54.8171 78.0404 55.1491 77.9915 55.6504 77.998V74.375C55.6504 73.8607 55.5332 73.4993 55.2988 73.291C54.9928 73.0111 54.5404 72.8711 53.9414 72.8711C53.4987 72.8711 53.1048 72.959 52.7598 73.1348C52.4212 73.304 51.9622 73.6751 51.3828 74.248V77.998C51.8971 77.998 52.2292 78.0469 52.3789 78.1445C52.6979 78.3464 52.8574 78.6328 52.8574 79.0039C52.8574 79.2969 52.7533 79.5378 52.5449 79.7266C52.3431 79.9089 52.0013 80 51.5195 80H49.2441C48.7624 80 48.4173 79.9089 48.209 79.7266C48.0072 79.5378 47.9062 79.2936 47.9062 78.9941C47.9062 78.6296 48.0658 78.3464 48.3848 78.1445C48.541 78.0404 48.873 77.9915 49.3809 77.998V69.3359H49.0391C48.5573 69.3359 48.2122 69.2448 48.0039 69.0625C47.8021 68.8737 47.7012 68.6296 47.7012 68.3301C47.7012 68.0371 47.8021 67.7995 48.0039 67.6172C48.2122 67.4284 48.5573 67.334 49.0391 67.334H51.3828ZM70.4844 76.582H62.2715C62.4798 77.1029 62.8477 77.5228 63.375 77.8418C63.9089 78.1608 64.6283 78.3203 65.5332 78.3203C66.2754 78.3203 67.2617 78.1608 68.4922 77.8418C69 77.7116 69.3516 77.6465 69.5469 77.6465C69.8138 77.6465 70.0384 77.7409 70.2207 77.9297C70.403 78.1185 70.4941 78.3561 70.4941 78.6426C70.4941 78.903 70.3965 79.1243 70.2012 79.3066C69.9408 79.5475 69.306 79.7786 68.2969 80C67.2878 80.2148 66.3177 80.3223 65.3867 80.3223C63.7852 80.3223 62.5026 79.8698 61.5391 78.9648C60.582 78.0599 60.1035 76.9466 60.1035 75.625C60.1035 74.2188 60.6211 73.0762 61.6562 72.1973C62.6979 71.3118 63.8958 70.8691 65.25 70.8691C66.0638 70.8691 66.8092 71.0124 67.4863 71.2988C68.1699 71.5853 68.6777 71.8945 69.0098 72.2266C69.4785 72.7083 69.8659 73.304 70.1719 74.0137C70.3802 74.5085 70.4844 75.0814 70.4844 75.7324V76.582ZM68.2676 74.5801C67.9616 74.0072 67.5612 73.5807 67.0664 73.3008C66.5716 73.0143 65.9824 72.8711 65.2988 72.8711C64.6217 72.8711 64.0358 73.0143 63.541 73.3008C63.0462 73.5807 62.6426 74.0072 62.3301 74.5801H68.2676ZM86.998 78.8965V82.1777H88.1992C88.681 82.1777 89.0228 82.2689 89.2246 82.4512C89.4329 82.64 89.5371 82.8841 89.5371 83.1836C89.5371 83.4766 89.4329 83.7142 89.2246 83.8965C89.0228 84.0853 88.681 84.1797 88.1992 84.1797H84.6543C84.1725 84.1797 83.8275 84.0853 83.6191 83.8965C83.4173 83.7142 83.3164 83.4766 83.3164 83.1836C83.3164 82.8841 83.4206 82.64 83.6289 82.4512C83.8372 82.2689 84.179 82.1777 84.6543 82.1777H84.9961V73.1348H84.6543C84.1725 73.1348 83.8275 73.0436 83.6191 72.8613C83.4173 72.6725 83.3164 72.4284 83.3164 72.1289C83.3164 71.8359 83.4173 71.5983 83.6191 71.416C83.8275 71.2272 84.1725 71.1328 84.6543 71.1328H86.998V71.8164C87.4668 71.4974 87.9518 71.2598 88.4531 71.1035C88.9544 70.9473 89.4688 70.8691 89.9961 70.8691C91.3633 70.8691 92.5286 71.3346 93.4922 72.2656C94.4557 73.1901 94.9375 74.2513 94.9375 75.4492C94.9375 76.7708 94.3678 77.8613 93.2285 78.7207C92.278 79.4368 91.207 79.7949 90.0156 79.7949C89.5013 79.7949 88.9935 79.7201 88.4922 79.5703C87.9909 79.4206 87.4928 79.196 86.998 78.8965ZM92.9355 75.459C92.9355 75.179 92.8249 74.8242 92.6035 74.3945C92.3822 73.9583 92.0404 73.597 91.5781 73.3105C91.1224 73.0176 90.5853 72.8711 89.9668 72.8711C88.9707 72.8711 88.1797 73.2454 87.5938 73.9941C87.1966 74.5085 86.998 75.0033 86.998 75.4785C86.998 76.0124 87.2812 76.5332 87.8477 77.041C88.4206 77.5423 89.127 77.793 89.9668 77.793C90.8132 77.793 91.5195 77.5423 92.0859 77.041C92.6523 76.5397 92.9355 76.0124 92.9355 75.459ZM101.08 71.1328V72.3828C101.92 71.7773 102.581 71.3737 103.062 71.1719C103.551 70.9701 104.007 70.8691 104.43 70.8691C105.081 70.8691 105.712 71.11 106.324 71.5918C106.741 71.9173 106.949 72.2493 106.949 72.5879C106.949 72.8743 106.848 73.1185 106.646 73.3203C106.451 73.5156 106.214 73.6133 105.934 73.6133C105.686 73.6133 105.426 73.4896 105.152 73.2422C104.879 72.9948 104.635 72.8711 104.42 72.8711C104.14 72.8711 103.72 73.0469 103.16 73.3984C102.607 73.75 101.913 74.2773 101.08 74.9805V77.998H103.932C104.413 77.998 104.755 78.0924 104.957 78.2812C105.165 78.4635 105.27 78.7044 105.27 79.0039C105.27 79.2969 105.165 79.5378 104.957 79.7266C104.755 79.9089 104.413 80 103.932 80H97.8867C97.4049 80 97.0599 79.9089 96.8516 79.7266C96.6497 79.5378 96.5488 79.2936 96.5488 78.9941C96.5488 78.7012 96.6497 78.4635 96.8516 78.2812C97.0599 78.0924 97.4049 77.998 97.8867 77.998H99.0781V73.1348H98.3555C97.8737 73.1348 97.5286 73.0436 97.3203 72.8613C97.1185 72.6725 97.0176 72.4284 97.0176 72.1289C97.0176 71.8359 97.1185 71.5983 97.3203 71.416C97.5286 71.2272 97.8737 71.1328 98.3555 71.1328H101.08ZM118.707 75.7324C118.707 76.5007 118.492 77.2461 118.062 77.9688C117.639 78.6849 117.005 79.2578 116.158 79.6875C115.318 80.1107 114.439 80.3223 113.521 80.3223C112.61 80.3223 111.738 80.1139 110.904 79.6973C110.071 79.2741 109.436 78.7012 109 77.9785C108.564 77.2559 108.346 76.5007 108.346 75.7129C108.346 74.9121 108.567 74.1276 109.01 73.3594C109.452 72.5846 110.087 71.9759 110.914 71.5332C111.747 71.0905 112.617 70.8691 113.521 70.8691C114.433 70.8691 115.309 71.097 116.148 71.5527C116.995 72.002 117.633 72.6107 118.062 73.3789C118.492 74.1406 118.707 74.9251 118.707 75.7324ZM116.705 75.7422C116.705 75.0977 116.474 74.5052 116.012 73.9648C115.38 73.2357 114.55 72.8711 113.521 72.8711C112.617 72.8711 111.861 73.1608 111.256 73.7402C110.65 74.3197 110.348 74.9902 110.348 75.752C110.348 76.377 110.654 76.9629 111.266 77.5098C111.878 78.0501 112.63 78.3203 113.521 78.3203C114.42 78.3203 115.175 78.0501 115.787 77.5098C116.399 76.9629 116.705 76.3737 116.705 75.7422ZM122.428 71.1328V71.6992C122.753 71.3802 123.046 71.1621 123.307 71.0449C123.574 70.9212 123.88 70.8594 124.225 70.8594C124.518 70.8594 124.807 70.931 125.094 71.0742C125.38 71.2174 125.66 71.4323 125.934 71.7188C126.279 71.4323 126.627 71.2207 126.979 71.084C127.337 70.9408 127.701 70.8691 128.072 70.8691C128.814 70.8691 129.417 71.0677 129.879 71.4648C130.491 71.9857 130.797 72.6693 130.797 73.5156V77.998C131.214 77.998 131.523 78.0924 131.725 78.2812C131.926 78.4701 132.027 78.7109 132.027 79.0039C132.027 79.2969 131.926 79.5378 131.725 79.7266C131.523 79.9089 131.181 80 130.699 80H128.795V73.6816C128.795 73.3757 128.74 73.1641 128.629 73.0469C128.518 72.9297 128.349 72.8711 128.121 72.8711C127.9 72.8711 127.695 72.9297 127.506 73.0469C127.265 73.2096 126.972 73.5156 126.627 73.9648V77.998C127.044 77.998 127.353 78.0924 127.555 78.2812C127.757 78.4701 127.857 78.7109 127.857 79.0039C127.857 79.2969 127.757 79.5378 127.555 79.7266C127.353 79.9089 127.011 80 126.529 80H124.625V73.6816C124.625 73.3822 124.566 73.1738 124.449 73.0566C124.339 72.9329 124.169 72.8711 123.941 72.8711C123.707 72.8711 123.476 72.946 123.248 73.0957C123.02 73.2389 122.747 73.5286 122.428 73.9648V77.998C122.844 77.998 123.154 78.0924 123.355 78.2812C123.564 78.4701 123.668 78.7109 123.668 79.0039C123.668 79.2969 123.564 79.5378 123.355 79.7266C123.154 79.9089 122.812 80 122.33 80H120.523C120.042 80 119.7 79.9089 119.498 79.7266C119.29 79.5378 119.186 79.2936 119.186 78.9941C119.186 78.7012 119.286 78.4635 119.488 78.2812C119.69 78.0924 120.003 77.998 120.426 77.998V73.1348C120.003 73.1348 119.69 73.0404 119.488 72.8516C119.286 72.6628 119.186 72.4219 119.186 72.1289C119.186 71.8359 119.29 71.5983 119.498 71.416C119.7 71.2272 120.042 71.1328 120.523 71.1328H122.428ZM135.045 78.8965V82.1777H136.246C136.728 82.1777 137.07 82.2689 137.271 82.4512C137.48 82.64 137.584 82.8841 137.584 83.1836C137.584 83.4766 137.48 83.7142 137.271 83.8965C137.07 84.0853 136.728 84.1797 136.246 84.1797H132.701C132.219 84.1797 131.874 84.0853 131.666 83.8965C131.464 83.7142 131.363 83.4766 131.363 83.1836C131.363 82.8841 131.467 82.64 131.676 82.4512C131.884 82.2689 132.226 82.1777 132.701 82.1777H133.043V73.1348H132.701C132.219 73.1348 131.874 73.0436 131.666 72.8613C131.464 72.6725 131.363 72.4284 131.363 72.1289C131.363 71.8359 131.464 71.5983 131.666 71.416C131.874 71.2272 132.219 71.1328 132.701 71.1328H135.045V71.8164C135.514 71.4974 135.999 71.2598 136.5 71.1035C137.001 70.9473 137.516 70.8691 138.043 70.8691C139.41 70.8691 140.576 71.3346 141.539 72.2656C142.503 73.1901 142.984 74.2513 142.984 75.4492C142.984 76.7708 142.415 77.8613 141.275 78.7207C140.325 79.4368 139.254 79.7949 138.062 79.7949C137.548 79.7949 137.04 79.7201 136.539 79.5703C136.038 79.4206 135.54 79.196 135.045 78.8965ZM140.982 75.459C140.982 75.179 140.872 74.8242 140.65 74.3945C140.429 73.9583 140.087 73.597 139.625 73.3105C139.169 73.0176 138.632 72.8711 138.014 72.8711C137.018 72.8711 136.227 73.2454 135.641 73.9941C135.243 74.5085 135.045 75.0033 135.045 75.4785C135.045 76.0124 135.328 76.5332 135.895 77.041C136.467 77.5423 137.174 77.793 138.014 77.793C138.86 77.793 139.566 77.5423 140.133 77.041C140.699 76.5397 140.982 76.0124 140.982 75.459ZM149.049 73.1348V77.1484C149.049 77.5781 149.137 77.8613 149.312 77.998C149.586 78.2129 150.074 78.3203 150.777 78.3203C151.799 78.3203 152.743 78.1022 153.609 77.666C153.941 77.4967 154.202 77.4121 154.391 77.4121C154.651 77.4121 154.876 77.5098 155.064 77.7051C155.26 77.9004 155.357 78.138 155.357 78.418C155.357 78.6784 155.253 78.903 155.045 79.0918C154.726 79.3978 154.094 79.681 153.15 79.9414C152.213 80.1953 151.422 80.3223 150.777 80.3223C149.534 80.3223 148.6 80.0553 147.975 79.5215C147.356 78.9811 147.047 78.3203 147.047 77.5391V73.1348H146.324C145.842 73.1348 145.497 73.0436 145.289 72.8613C145.087 72.6725 144.986 72.4284 144.986 72.1289C144.986 71.8359 145.087 71.5983 145.289 71.416C145.497 71.2272 145.842 71.1328 146.324 71.1328H147.047V69.3262C147.047 68.8444 147.138 68.5026 147.32 68.3008C147.509 68.0924 147.753 67.9883 148.053 67.9883C148.346 67.9883 148.583 68.0924 148.766 68.3008C148.954 68.5026 149.049 68.8444 149.049 69.3262V71.1328H152.75C153.232 71.1328 153.574 71.2272 153.775 71.416C153.984 71.5983 154.088 71.8392 154.088 72.1387C154.088 72.4316 153.984 72.6725 153.775 72.8613C153.574 73.0436 153.232 73.1348 152.75 73.1348H149.049ZM162.574 75.3809C162.535 75.7585 162.424 76.0352 162.242 76.2109C162.066 76.3802 161.842 76.4648 161.568 76.4648C161.275 76.4648 161.035 76.3639 160.846 76.1621C160.663 75.9538 160.572 75.6087 160.572 75.127V74.0039C162.154 73.3984 163.108 72.9329 163.434 72.6074C163.759 72.2819 163.922 71.9499 163.922 71.6113C163.922 71.1361 163.73 70.7259 163.346 70.3809C162.968 70.0358 162.431 69.8633 161.734 69.8633C160.999 69.8633 160.289 70.0326 159.605 70.3711V70.6641C159.605 71.1393 159.511 71.4811 159.322 71.6895C159.14 71.8913 158.899 71.9922 158.6 71.9922C158.307 71.9922 158.066 71.8913 157.877 71.6895C157.695 71.4876 157.604 71.1458 157.604 70.6641V69.0527C158.626 68.571 159.42 68.252 159.986 68.0957C160.553 67.9395 161.139 67.8613 161.744 67.8613C163.007 67.8613 164.02 68.2259 164.781 68.9551C165.543 69.6842 165.924 70.599 165.924 71.6992C165.924 72.4805 165.693 73.1445 165.23 73.6914C164.775 74.2383 163.889 74.8014 162.574 75.3809ZM162.994 79.248C162.994 79.554 162.883 79.8047 162.662 80C162.447 80.1888 162.086 80.2832 161.578 80.2832C161.07 80.2832 160.706 80.1888 160.484 80C160.27 79.8047 160.162 79.554 160.162 79.248C160.162 78.9421 160.27 78.6947 160.484 78.5059C160.699 78.3105 161.064 78.2129 161.578 78.2129C162.086 78.2129 162.447 78.3105 162.662 78.5059C162.883 78.6947 162.994 78.9421 162.994 79.248Z" fill="black"/>
<path d="M188.049 72.0228L187.567 71.849L187.405 72.335C182.31 87.6219 166.978 96.4336 149.073 101.416C131.193 106.391 110.904 107.5 96.1587 107.5C69.6747 107.5 45.7226 101.471 28.4091 91.7478C11.0797 82.0161 0.5 68.6504 0.5 54C0.5 39.3496 11.0797 25.9839 28.4091 16.2522C45.7226 6.52941 69.6747 0.5 96.1587 0.5C122.643 0.5 146.595 6.52941 163.908 16.2522C181.238 25.9839 191.817 39.3496 191.817 54V54.2551L192.024 54.4048C203.84 62.9723 212.64 70.5418 219.163 76.5233C222.154 79.2664 224.667 81.6756 226.775 83.6972C226.966 83.8802 227.153 84.06 227.338 84.2367C228.596 85.4428 229.707 86.503 230.684 87.4001L188.049 72.0228Z" stroke="#EE3D57"/>
</svg>
