<svg width="76" height="37" viewBox="0 0 76 37" fill="none" xmlns="http://www.w3.org/2000/svg">
<path d="M22.8281 10.25L22.3125 26.0469H18.5625L18.0312 10.25H22.8281ZM17.9062 30.9375C17.9062 30.2708 18.1354 29.7188 18.5938 29.2812C19.0625 28.8333 19.6771 28.6094 20.4375 28.6094C21.2083 28.6094 21.8229 28.8333 22.2812 29.2812C22.7396 29.7188 22.9688 30.2708 22.9688 30.9375C22.9688 31.5833 22.7396 32.1302 22.2812 32.5781C21.8229 33.026 21.2083 33.25 20.4375 33.25C19.6771 33.25 19.0625 33.026 18.5938 32.5781C18.1354 32.1302 17.9062 31.5833 17.9062 30.9375Z" fill="white"/>
<path d="M1 36L20.5636 1L41 36H1Z" stroke="white"/>
</svg>
